<svg xmlns="http://www.w3.org/2000/svg" xmlns:xlink="http://www.w3.org/1999/xlink" viewBox="0 0 1200.03 1920"><defs><style>.cls-1{fill:url(#Degradado_sin_nombre_90);}.cls-2{fill:url(#Degradado_sin_nombre_102);}.cls-3{fill:url(#Degradado_sin_nombre_51);}.cls-4{fill:url(#Degradado_sin_nombre_2);}.cls-5{fill:url(#Degradado_sin_nombre_66);}.cls-6{fill:url(#Degradado_sin_nombre_13);}</style><linearGradient id="Degradado_sin_nombre_90" y1="355.77" x2="1198" y2="355.77" gradientUnits="userSpaceOnUse"><stop offset="0" stop-color="#b471bc" stop-opacity="0.4"/><stop offset="0.65" stop-color="#9320a1" stop-opacity="0.6"/></linearGradient><linearGradient id="Degradado_sin_nombre_102" x1="2" y1="337.58" x2="1197" y2="337.58" gradientUnits="userSpaceOnUse"><stop offset="0" stop-color="#6471e4" stop-opacity="0.4"/><stop offset="0.65" stop-color="#3d32bf" stop-opacity="0.6"/></linearGradient><linearGradient id="Degradado_sin_nombre_51" x1="681.48" y1="1660.01" x2="1085.94" y2="1753.38" gradientTransform="translate(2152.03 395.23) rotate(111.12)" gradientUnits="userSpaceOnUse"><stop offset="0" stop-color="#d8b2dc" stop-opacity="0.9"/><stop offset="0.76" stop-color="#ff9bc6" stop-opacity="0.7"/></linearGradient><linearGradient id="Degradado_sin_nombre_2" x1="2" y1="312.91" x2="1197" y2="312.91" gradientUnits="userSpaceOnUse"><stop offset="0" stop-color="#0071bc" stop-opacity="0.5"/><stop offset="1" stop-color="#2e3192" stop-opacity="0.6"/></linearGradient><linearGradient id="Degradado_sin_nombre_66" x1="-28.61" y1="546.93" x2="69.62" y2="569.61" gradientTransform="translate(577.49 854.4)" gradientUnits="userSpaceOnUse"><stop offset="0" stop-color="#007ce9" stop-opacity="0.5"/><stop offset="1" stop-color="#0028bf" stop-opacity="0.7"/></linearGradient><linearGradient id="Degradado_sin_nombre_13" y1="1729.5" x2="1200.03" y2="1729.5" gradientUnits="userSpaceOnUse"><stop offset="0" stop-color="#00a892" stop-opacity="0.5"/><stop offset="1" stop-color="#00128d" stop-opacity="0.7"/></linearGradient></defs><title>Recurso 2PantallaDarkPatri2</title><g id="Capa_2" data-name="Capa 2"><g id="Capa_1-2" data-name="Capa 1"><path class="cls-1" d="M1198,2.32C559.4,255.22,297,1074,2,527,2,527,0,256.38,0,0"/><path class="cls-2" d="M1197,2.13C560,234.83,346,992,2,527V0"/><circle class="cls-3" cx="241.56" cy="604.66" r="207.5"/><path class="cls-4" d="M1197,2C560,220,404,872,2,527V0"/><path class="cls-5" d="M650,1406.55c0,27.89-31,64.45-50,64.45s-51-36.56-51-64.45a50.5,50.5,0,0,1,101,0Z"/><path class="cls-6" d="M1200,1648s0,241,0,272H0V1648m803,0c-59.92-.35-70-109-204-109-133,0-148.08,108.72-208,109"/></g></g></svg>